<?xml version="1.0" encoding="UTF-8" standalone="no"?>
<!DOCTYPE svg PUBLIC "-//W3C//DTD SVG 1.1//EN"
 "http://www.w3.org/Graphics/SVG/1.1/DTD/svg11.dtd">
<!-- Generated by graphviz version 2.38.0 (20140413.2041)
 -->
<!-- Title: unnamed Pages: 1 -->
<svg width="814pt" height="556pt"
 viewBox="0.00 0.00 814.00 556.00" xmlns="http://www.w3.org/2000/svg" xmlns:xlink="http://www.w3.org/1999/xlink">
<g id="graph0" class="graph" transform="scale(1 1) rotate(0) translate(4 552)">
<title>unnamed</title>
<polygon fill="white" stroke="none" points="-4,4 -4,-552 810,-552 810,4 -4,4"/>
<!-- Node0x7fda27e4d1f8 -->
<g id="node1" class="node"><title>Node0x7fda27e4d1f8</title>
<polygon fill="none" stroke="black" points="317,-511.5 317,-547.5 421,-547.5 421,-511.5 317,-511.5"/>
<text text-anchor="middle" x="369" y="-525.8" font-family="Times,serif" font-size="14.00">CompoundStmt</text>
</g>
<!-- Node0x7fda27e4ce48 -->
<g id="node2" class="node"><title>Node0x7fda27e4ce48</title>
<polygon fill="none" stroke="black" points="177,-438.5 177,-474.5 245,-474.5 245,-438.5 177,-438.5"/>
<text text-anchor="middle" x="211" y="-452.8" font-family="Times,serif" font-size="14.00">DeclStmt</text>
</g>
<!-- Node0x7fda27e4d1f8&#45;&gt;Node0x7fda27e4ce48 -->
<g id="edge1" class="edge"><title>Node0x7fda27e4d1f8&#45;&gt;Node0x7fda27e4ce48</title>
<path fill="none" stroke="black" d="M331.155,-511.494C308.024,-501.099 278.362,-487.77 254.297,-476.956"/>
<polygon fill="black" stroke="black" points="255.594,-473.702 245.038,-472.796 252.725,-480.087 255.594,-473.702"/>
</g>
<!-- Node0x7fda27e4d188 -->
<g id="node3" class="node"><title>Node0x7fda27e4d188</title>
<polygon fill="none" stroke="black" points="338,-438.5 338,-474.5 400,-474.5 400,-438.5 338,-438.5"/>
<text text-anchor="middle" x="369" y="-452.8" font-family="Times,serif" font-size="14.00">ForStmt</text>
</g>
<!-- Node0x7fda27e4d1f8&#45;&gt;Node0x7fda27e4d188 -->
<g id="edge2" class="edge"><title>Node0x7fda27e4d1f8&#45;&gt;Node0x7fda27e4d188</title>
<path fill="none" stroke="black" d="M369,-511.313C369,-503.289 369,-493.547 369,-484.569"/>
<polygon fill="black" stroke="black" points="372.5,-484.529 369,-474.529 365.5,-484.529 372.5,-484.529"/>
</g>
<!-- Node0x7fda27e4d1e0 -->
<g id="node4" class="node"><title>Node0x7fda27e4d1e0</title>
<polygon fill="none" stroke="black" points="550,-438.5 550,-474.5 630,-474.5 630,-438.5 550,-438.5"/>
<text text-anchor="middle" x="590" y="-452.8" font-family="Times,serif" font-size="14.00">ReturnStmt</text>
</g>
<!-- Node0x7fda27e4d1f8&#45;&gt;Node0x7fda27e4d1e0 -->
<g id="edge3" class="edge"><title>Node0x7fda27e4d1f8&#45;&gt;Node0x7fda27e4d1e0</title>
<path fill="none" stroke="black" d="M421.094,-511.764C457.137,-500.184 504.815,-484.867 540.323,-473.46"/>
<polygon fill="black" stroke="black" points="541.545,-476.743 549.995,-470.352 539.404,-470.079 541.545,-476.743"/>
</g>
<!-- Node0x7fda27e4ce10 -->
<g id="node5" class="node"><title>Node0x7fda27e4ce10</title>
<polygon fill="none" stroke="black" points="31.5,-365.5 31.5,-401.5 122.5,-401.5 122.5,-365.5 31.5,-365.5"/>
<text text-anchor="middle" x="77" y="-379.8" font-family="Times,serif" font-size="14.00">IntegerLiteral</text>
</g>
<!-- Node0x7fda27e4ce48&#45;&gt;Node0x7fda27e4ce10 -->
<g id="edge4" class="edge"><title>Node0x7fda27e4ce48&#45;&gt;Node0x7fda27e4ce10</title>
<path fill="none" stroke="black" d="M178.904,-438.494C160.723,-428.861 137.785,-416.707 118.277,-406.37"/>
<polygon fill="black" stroke="black" points="119.774,-403.203 109.299,-401.614 116.496,-409.388 119.774,-403.203"/>
</g>
<!-- Node0x7fda27e4cea8 -->
<g id="node6" class="node"><title>Node0x7fda27e4cea8</title>
<polygon fill="none" stroke="black" points="140.5,-365.5 140.5,-401.5 241.5,-401.5 241.5,-365.5 140.5,-365.5"/>
<text text-anchor="middle" x="191" y="-379.8" font-family="Times,serif" font-size="14.00">BinaryOperator</text>
</g>
<!-- Node0x7fda27e4d188&#45;&gt;Node0x7fda27e4cea8 -->
<g id="edge5" class="edge"><title>Node0x7fda27e4d188&#45;&gt;Node0x7fda27e4cea8</title>
<path fill="none" stroke="black" d="M337.995,-443.133C311.817,-432.691 273.783,-417.52 242.962,-405.226"/>
<polygon fill="black" stroke="black" points="244.235,-401.966 233.65,-401.512 241.641,-408.468 244.235,-401.966"/>
</g>
<!-- Node0x7fda27e4cf30 -->
<g id="node7" class="node"><title>Node0x7fda27e4cf30</title>
<polygon fill="none" stroke="black" points="259.5,-365.5 259.5,-401.5 360.5,-401.5 360.5,-365.5 259.5,-365.5"/>
<text text-anchor="middle" x="310" y="-379.8" font-family="Times,serif" font-size="14.00">BinaryOperator</text>
</g>
<!-- Node0x7fda27e4d188&#45;&gt;Node0x7fda27e4cf30 -->
<g id="edge6" class="edge"><title>Node0x7fda27e4d188&#45;&gt;Node0x7fda27e4cf30</title>
<path fill="none" stroke="black" d="M354.718,-438.313C347.471,-429.592 338.536,-418.84 330.564,-409.246"/>
<polygon fill="black" stroke="black" points="333.234,-406.983 324.151,-401.529 327.85,-411.457 333.234,-406.983"/>
</g>
<!-- Node0x7fda27e4cf80 -->
<g id="node8" class="node"><title>Node0x7fda27e4cf80</title>
<polygon fill="none" stroke="black" points="379,-365.5 379,-401.5 477,-401.5 477,-365.5 379,-365.5"/>
<text text-anchor="middle" x="428" y="-379.8" font-family="Times,serif" font-size="14.00">UnaryOperator</text>
</g>
<!-- Node0x7fda27e4d188&#45;&gt;Node0x7fda27e4cf80 -->
<g id="edge7" class="edge"><title>Node0x7fda27e4d188&#45;&gt;Node0x7fda27e4cf80</title>
<path fill="none" stroke="black" d="M383.282,-438.313C390.529,-429.592 399.464,-418.84 407.436,-409.246"/>
<polygon fill="black" stroke="black" points="410.15,-411.457 413.849,-401.529 404.766,-406.983 410.15,-411.457"/>
</g>
<!-- Node0x7fda27e4d168 -->
<g id="node9" class="node"><title>Node0x7fda27e4d168</title>
<polygon fill="none" stroke="black" points="495,-365.5 495,-401.5 599,-401.5 599,-365.5 495,-365.5"/>
<text text-anchor="middle" x="547" y="-379.8" font-family="Times,serif" font-size="14.00">CompoundStmt</text>
</g>
<!-- Node0x7fda27e4d188&#45;&gt;Node0x7fda27e4d168 -->
<g id="edge8" class="edge"><title>Node0x7fda27e4d188&#45;&gt;Node0x7fda27e4d168</title>
<path fill="none" stroke="black" d="M400.005,-443.133C426.183,-432.691 464.217,-417.52 495.038,-405.226"/>
<polygon fill="black" stroke="black" points="496.359,-408.468 504.35,-401.512 493.765,-401.966 496.359,-408.468"/>
</g>
<!-- Node0x7fda27e4d1c0 -->
<g id="node28" class="node"><title>Node0x7fda27e4d1c0</title>
<polygon fill="none" stroke="black" points="617.5,-365.5 617.5,-401.5 708.5,-401.5 708.5,-365.5 617.5,-365.5"/>
<text text-anchor="middle" x="663" y="-379.8" font-family="Times,serif" font-size="14.00">IntegerLiteral</text>
</g>
<!-- Node0x7fda27e4d1e0&#45;&gt;Node0x7fda27e4d1c0 -->
<g id="edge27" class="edge"><title>Node0x7fda27e4d1e0&#45;&gt;Node0x7fda27e4d1c0</title>
<path fill="none" stroke="black" d="M607.671,-438.313C616.817,-429.417 628.135,-418.409 638.147,-408.672"/>
<polygon fill="black" stroke="black" points="640.763,-411.01 645.491,-401.529 635.883,-405.992 640.763,-411.01"/>
</g>
<!-- Node0x7fda27e4ce60 -->
<g id="node10" class="node"><title>Node0x7fda27e4ce60</title>
<polygon fill="none" stroke="black" points="0,-292.5 0,-328.5 88,-328.5 88,-292.5 0,-292.5"/>
<text text-anchor="middle" x="44" y="-306.8" font-family="Times,serif" font-size="14.00">DeclRefExpr</text>
</g>
<!-- Node0x7fda27e4cea8&#45;&gt;Node0x7fda27e4ce60 -->
<g id="edge9" class="edge"><title>Node0x7fda27e4cea8&#45;&gt;Node0x7fda27e4ce60</title>
<path fill="none" stroke="black" d="M155.79,-365.494C135.665,-355.773 110.226,-343.487 88.7011,-333.09"/>
<polygon fill="black" stroke="black" points="89.9593,-329.811 79.4323,-328.614 86.9148,-336.114 89.9593,-329.811"/>
</g>
<!-- Node0x7fda27e4ce88 -->
<g id="node11" class="node"><title>Node0x7fda27e4ce88</title>
<polygon fill="none" stroke="black" points="106.5,-292.5 106.5,-328.5 197.5,-328.5 197.5,-292.5 106.5,-292.5"/>
<text text-anchor="middle" x="152" y="-306.8" font-family="Times,serif" font-size="14.00">IntegerLiteral</text>
</g>
<!-- Node0x7fda27e4cea8&#45;&gt;Node0x7fda27e4ce88 -->
<g id="edge10" class="edge"><title>Node0x7fda27e4cea8&#45;&gt;Node0x7fda27e4ce88</title>
<path fill="none" stroke="black" d="M181.559,-365.313C176.96,-356.941 171.334,-346.697 166.228,-337.403"/>
<polygon fill="black" stroke="black" points="169.236,-335.609 161.354,-328.529 163.101,-338.979 169.236,-335.609"/>
</g>
<!-- Node0x7fda27e4cf18 -->
<g id="node12" class="node"><title>Node0x7fda27e4cf18</title>
<polygon fill="none" stroke="black" points="216,-292.5 216,-328.5 326,-328.5 326,-292.5 216,-292.5"/>
<text text-anchor="middle" x="271" y="-306.8" font-family="Times,serif" font-size="14.00">ImplicitCastExpr</text>
</g>
<!-- Node0x7fda27e4cf30&#45;&gt;Node0x7fda27e4cf18 -->
<g id="edge11" class="edge"><title>Node0x7fda27e4cf30&#45;&gt;Node0x7fda27e4cf18</title>
<path fill="none" stroke="black" d="M300.559,-365.313C295.96,-356.941 290.334,-346.697 285.228,-337.403"/>
<polygon fill="black" stroke="black" points="288.236,-335.609 280.354,-328.529 282.101,-338.979 288.236,-335.609"/>
</g>
<!-- Node0x7fda27e4cef8 -->
<g id="node13" class="node"><title>Node0x7fda27e4cef8</title>
<polygon fill="none" stroke="black" points="344.5,-292.5 344.5,-328.5 435.5,-328.5 435.5,-292.5 344.5,-292.5"/>
<text text-anchor="middle" x="390" y="-306.8" font-family="Times,serif" font-size="14.00">IntegerLiteral</text>
</g>
<!-- Node0x7fda27e4cf30&#45;&gt;Node0x7fda27e4cef8 -->
<g id="edge12" class="edge"><title>Node0x7fda27e4cf30&#45;&gt;Node0x7fda27e4cef8</title>
<path fill="none" stroke="black" d="M329.366,-365.313C339.487,-356.33 352.036,-345.193 363.087,-335.386"/>
<polygon fill="black" stroke="black" points="365.657,-337.784 370.813,-328.529 361.01,-332.549 365.657,-337.784"/>
</g>
<!-- Node0x7fda27e4cf58 -->
<g id="node15" class="node"><title>Node0x7fda27e4cf58</title>
<polygon fill="none" stroke="black" points="454,-292.5 454,-328.5 542,-328.5 542,-292.5 454,-292.5"/>
<text text-anchor="middle" x="498" y="-306.8" font-family="Times,serif" font-size="14.00">DeclRefExpr</text>
</g>
<!-- Node0x7fda27e4cf80&#45;&gt;Node0x7fda27e4cf58 -->
<g id="edge14" class="edge"><title>Node0x7fda27e4cf80&#45;&gt;Node0x7fda27e4cf58</title>
<path fill="none" stroke="black" d="M444.945,-365.313C453.715,-356.417 464.568,-345.409 474.169,-335.672"/>
<polygon fill="black" stroke="black" points="476.683,-338.107 481.211,-328.529 471.698,-333.193 476.683,-338.107"/>
</g>
<!-- Node0x7fda27e4d130 -->
<g id="node16" class="node"><title>Node0x7fda27e4d130</title>
<polygon fill="none" stroke="black" points="560,-292.5 560,-328.5 614,-328.5 614,-292.5 560,-292.5"/>
<text text-anchor="middle" x="587" y="-306.8" font-family="Times,serif" font-size="14.00">IfStmt</text>
</g>
<!-- Node0x7fda27e4d168&#45;&gt;Node0x7fda27e4d130 -->
<g id="edge15" class="edge"><title>Node0x7fda27e4d168&#45;&gt;Node0x7fda27e4d130</title>
<path fill="none" stroke="black" d="M556.683,-365.313C561.4,-356.941 567.171,-346.697 572.407,-337.403"/>
<polygon fill="black" stroke="black" points="575.547,-338.959 577.406,-328.529 569.448,-335.523 575.547,-338.959"/>
</g>
<!-- Node0x7fda27e4ced0 -->
<g id="node14" class="node"><title>Node0x7fda27e4ced0</title>
<polygon fill="none" stroke="black" points="227,-219.5 227,-255.5 315,-255.5 315,-219.5 227,-219.5"/>
<text text-anchor="middle" x="271" y="-233.8" font-family="Times,serif" font-size="14.00">DeclRefExpr</text>
</g>
<!-- Node0x7fda27e4cf18&#45;&gt;Node0x7fda27e4ced0 -->
<g id="edge13" class="edge"><title>Node0x7fda27e4cf18&#45;&gt;Node0x7fda27e4ced0</title>
<path fill="none" stroke="black" d="M271,-292.313C271,-284.289 271,-274.547 271,-265.569"/>
<polygon fill="black" stroke="black" points="274.5,-265.529 271,-255.529 267.5,-265.529 274.5,-265.529"/>
</g>
<!-- Node0x7fda27e4d048 -->
<g id="node17" class="node"><title>Node0x7fda27e4d048</title>
<polygon fill="none" stroke="black" points="475.5,-219.5 475.5,-255.5 576.5,-255.5 576.5,-219.5 475.5,-219.5"/>
<text text-anchor="middle" x="526" y="-233.8" font-family="Times,serif" font-size="14.00">BinaryOperator</text>
</g>
<!-- Node0x7fda27e4d130&#45;&gt;Node0x7fda27e4d048 -->
<g id="edge16" class="edge"><title>Node0x7fda27e4d130&#45;&gt;Node0x7fda27e4d048</title>
<path fill="none" stroke="black" d="M572.234,-292.313C564.741,-283.592 555.504,-272.84 547.261,-263.246"/>
<polygon fill="black" stroke="black" points="549.802,-260.833 540.63,-255.529 544.492,-265.395 549.802,-260.833"/>
</g>
<!-- Node0x7fda27e4d110 -->
<g id="node18" class="node"><title>Node0x7fda27e4d110</title>
<polygon fill="none" stroke="black" points="607,-219.5 607,-255.5 711,-255.5 711,-219.5 607,-219.5"/>
<text text-anchor="middle" x="659" y="-233.8" font-family="Times,serif" font-size="14.00">CompoundStmt</text>
</g>
<!-- Node0x7fda27e4d130&#45;&gt;Node0x7fda27e4d110 -->
<g id="edge17" class="edge"><title>Node0x7fda27e4d130&#45;&gt;Node0x7fda27e4d110</title>
<path fill="none" stroke="black" d="M604.429,-292.313C613.45,-283.417 624.613,-272.409 634.488,-262.672"/>
<polygon fill="black" stroke="black" points="637.068,-265.042 641.731,-255.529 632.153,-260.058 637.068,-265.042"/>
</g>
<!-- Node0x7fda27e4d000 -->
<g id="node19" class="node"><title>Node0x7fda27e4d000</title>
<polygon fill="none" stroke="black" points="361.5,-146.5 361.5,-182.5 462.5,-182.5 462.5,-146.5 361.5,-146.5"/>
<text text-anchor="middle" x="412" y="-160.8" font-family="Times,serif" font-size="14.00">BinaryOperator</text>
</g>
<!-- Node0x7fda27e4d048&#45;&gt;Node0x7fda27e4d000 -->
<g id="edge18" class="edge"><title>Node0x7fda27e4d048&#45;&gt;Node0x7fda27e4d000</title>
<path fill="none" stroke="black" d="M498.694,-219.494C483.577,-210.079 464.593,-198.255 448.247,-188.075"/>
<polygon fill="black" stroke="black" points="449.817,-184.929 439.478,-182.614 446.116,-190.871 449.817,-184.929"/>
</g>
<!-- Node0x7fda27e4d028 -->
<g id="node20" class="node"><title>Node0x7fda27e4d028</title>
<polygon fill="none" stroke="black" points="480.5,-146.5 480.5,-182.5 571.5,-182.5 571.5,-146.5 480.5,-146.5"/>
<text text-anchor="middle" x="526" y="-160.8" font-family="Times,serif" font-size="14.00">IntegerLiteral</text>
</g>
<!-- Node0x7fda27e4d048&#45;&gt;Node0x7fda27e4d028 -->
<g id="edge19" class="edge"><title>Node0x7fda27e4d048&#45;&gt;Node0x7fda27e4d028</title>
<path fill="none" stroke="black" d="M526,-219.313C526,-211.289 526,-201.547 526,-192.569"/>
<polygon fill="black" stroke="black" points="529.5,-192.529 526,-182.529 522.5,-192.529 529.5,-192.529"/>
</g>
<!-- Node0x7fda27e4d0d8 -->
<g id="node24" class="node"><title>Node0x7fda27e4d0d8</title>
<polygon fill="none" stroke="black" points="589.5,-146.5 589.5,-182.5 752.5,-182.5 752.5,-146.5 589.5,-146.5"/>
<text text-anchor="middle" x="671" y="-160.8" font-family="Times,serif" font-size="14.00">CompoundAssignOperator</text>
</g>
<!-- Node0x7fda27e4d110&#45;&gt;Node0x7fda27e4d0d8 -->
<g id="edge23" class="edge"><title>Node0x7fda27e4d110&#45;&gt;Node0x7fda27e4d0d8</title>
<path fill="none" stroke="black" d="M661.905,-219.313C663.261,-211.289 664.907,-201.547 666.425,-192.569"/>
<polygon fill="black" stroke="black" points="669.906,-192.972 668.122,-182.529 663.004,-191.806 669.906,-192.972"/>
</g>
<!-- Node0x7fda27e4cfe8 -->
<g id="node21" class="node"><title>Node0x7fda27e4cfe8</title>
<polygon fill="none" stroke="black" points="315,-73.5 315,-109.5 425,-109.5 425,-73.5 315,-73.5"/>
<text text-anchor="middle" x="370" y="-87.8" font-family="Times,serif" font-size="14.00">ImplicitCastExpr</text>
</g>
<!-- Node0x7fda27e4d000&#45;&gt;Node0x7fda27e4cfe8 -->
<g id="edge20" class="edge"><title>Node0x7fda27e4d000&#45;&gt;Node0x7fda27e4cfe8</title>
<path fill="none" stroke="black" d="M401.833,-146.313C396.88,-137.941 390.821,-127.697 385.323,-118.403"/>
<polygon fill="black" stroke="black" points="388.177,-116.354 380.073,-109.529 382.152,-119.918 388.177,-116.354"/>
</g>
<!-- Node0x7fda27e4cfc8 -->
<g id="node22" class="node"><title>Node0x7fda27e4cfc8</title>
<polygon fill="none" stroke="black" points="443.5,-73.5 443.5,-109.5 534.5,-109.5 534.5,-73.5 443.5,-73.5"/>
<text text-anchor="middle" x="489" y="-87.8" font-family="Times,serif" font-size="14.00">IntegerLiteral</text>
</g>
<!-- Node0x7fda27e4d000&#45;&gt;Node0x7fda27e4cfc8 -->
<g id="edge21" class="edge"><title>Node0x7fda27e4d000&#45;&gt;Node0x7fda27e4cfc8</title>
<path fill="none" stroke="black" d="M430.64,-146.313C440.381,-137.33 452.459,-126.193 463.096,-116.386"/>
<polygon fill="black" stroke="black" points="465.553,-118.881 470.532,-109.529 460.808,-113.735 465.553,-118.881"/>
</g>
<!-- Node0x7fda27e4cfa0 -->
<g id="node23" class="node"><title>Node0x7fda27e4cfa0</title>
<polygon fill="none" stroke="black" points="326,-0.5 326,-36.5 414,-36.5 414,-0.5 326,-0.5"/>
<text text-anchor="middle" x="370" y="-14.8" font-family="Times,serif" font-size="14.00">DeclRefExpr</text>
</g>
<!-- Node0x7fda27e4cfe8&#45;&gt;Node0x7fda27e4cfa0 -->
<g id="edge22" class="edge"><title>Node0x7fda27e4cfe8&#45;&gt;Node0x7fda27e4cfa0</title>
<path fill="none" stroke="black" d="M370,-73.3129C370,-65.2895 370,-55.5475 370,-46.5691"/>
<polygon fill="black" stroke="black" points="373.5,-46.5288 370,-36.5288 366.5,-46.5289 373.5,-46.5288"/>
</g>
<!-- Node0x7fda27e4d070 -->
<g id="node25" class="node"><title>Node0x7fda27e4d070</title>
<polygon fill="none" stroke="black" points="590,-73.5 590,-109.5 678,-109.5 678,-73.5 590,-73.5"/>
<text text-anchor="middle" x="634" y="-87.8" font-family="Times,serif" font-size="14.00">DeclRefExpr</text>
</g>
<!-- Node0x7fda27e4d0d8&#45;&gt;Node0x7fda27e4d070 -->
<g id="edge24" class="edge"><title>Node0x7fda27e4d0d8&#45;&gt;Node0x7fda27e4d070</title>
<path fill="none" stroke="black" d="M662.043,-146.313C657.68,-137.941 652.342,-127.697 647.499,-118.403"/>
<polygon fill="black" stroke="black" points="650.599,-116.779 642.874,-109.529 644.392,-120.014 650.599,-116.779"/>
</g>
<!-- Node0x7fda27e4d0c0 -->
<g id="node26" class="node"><title>Node0x7fda27e4d0c0</title>
<polygon fill="none" stroke="black" points="696,-73.5 696,-109.5 806,-109.5 806,-73.5 696,-73.5"/>
<text text-anchor="middle" x="751" y="-87.8" font-family="Times,serif" font-size="14.00">ImplicitCastExpr</text>
</g>
<!-- Node0x7fda27e4d0d8&#45;&gt;Node0x7fda27e4d0c0 -->
<g id="edge25" class="edge"><title>Node0x7fda27e4d0d8&#45;&gt;Node0x7fda27e4d0c0</title>
<path fill="none" stroke="black" d="M690.366,-146.313C700.487,-137.33 713.036,-126.193 724.087,-116.386"/>
<polygon fill="black" stroke="black" points="726.657,-118.784 731.813,-109.529 722.01,-113.549 726.657,-118.784"/>
</g>
<!-- Node0x7fda27e4d098 -->
<g id="node27" class="node"><title>Node0x7fda27e4d098</title>
<polygon fill="none" stroke="black" points="707,-0.5 707,-36.5 795,-36.5 795,-0.5 707,-0.5"/>
<text text-anchor="middle" x="751" y="-14.8" font-family="Times,serif" font-size="14.00">DeclRefExpr</text>
</g>
<!-- Node0x7fda27e4d0c0&#45;&gt;Node0x7fda27e4d098 -->
<g id="edge26" class="edge"><title>Node0x7fda27e4d0c0&#45;&gt;Node0x7fda27e4d098</title>
<path fill="none" stroke="black" d="M751,-73.3129C751,-65.2895 751,-55.5475 751,-46.5691"/>
<polygon fill="black" stroke="black" points="754.5,-46.5288 751,-36.5288 747.5,-46.5289 754.5,-46.5288"/>
</g>
</g>
</svg>
