<?xml version="1.0" encoding="UTF-8" standalone="no"?>
<!DOCTYPE svg PUBLIC "-//W3C//DTD SVG 1.1//EN"
 "http://www.w3.org/Graphics/SVG/1.1/DTD/svg11.dtd">
<!-- Generated by graphviz version 2.38.0 (20140413.2041)
 -->
<!-- Title: unnamed Pages: 1 -->
<svg width="861pt" height="629pt"
 viewBox="0.00 0.00 861.00 629.00" xmlns="http://www.w3.org/2000/svg" xmlns:xlink="http://www.w3.org/1999/xlink">
<g id="graph0" class="graph" transform="scale(1 1) rotate(0) translate(4 625)">
<title>unnamed</title>
<polygon fill="white" stroke="none" points="-4,4 -4,-625 857,-625 857,4 -4,4"/>
<!-- Node0x7fdf4b8e23a0 -->
<g id="node1" class="node"><title>Node0x7fdf4b8e23a0</title>
<polygon fill="none" stroke="black" points="330,-584.5 330,-620.5 434,-620.5 434,-584.5 330,-584.5"/>
<text text-anchor="middle" x="382" y="-598.8" font-family="Times,serif" font-size="14.00">CompoundStmt</text>
</g>
<!-- Node0x7fdf4b8e1db0 -->
<g id="node2" class="node"><title>Node0x7fdf4b8e1db0</title>
<polygon fill="none" stroke="black" points="307,-511.5 307,-547.5 375,-547.5 375,-511.5 307,-511.5"/>
<text text-anchor="middle" x="341" y="-525.8" font-family="Times,serif" font-size="14.00">DeclStmt</text>
</g>
<!-- Node0x7fdf4b8e23a0&#45;&gt;Node0x7fdf4b8e1db0 -->
<g id="edge1" class="edge"><title>Node0x7fdf4b8e23a0&#45;&gt;Node0x7fdf4b8e1db0</title>
<path fill="none" stroke="black" d="M372.075,-584.313C367.24,-575.941 361.325,-565.697 355.958,-556.403"/>
<polygon fill="black" stroke="black" points="358.865,-554.438 350.834,-547.529 352.803,-557.939 358.865,-554.438"/>
</g>
<!-- Node0x7fdf4b8e2368 -->
<g id="node3" class="node"><title>Node0x7fdf4b8e2368</title>
<polygon fill="none" stroke="black" points="393,-511.5 393,-547.5 455,-547.5 455,-511.5 393,-511.5"/>
<text text-anchor="middle" x="424" y="-525.8" font-family="Times,serif" font-size="14.00">ForStmt</text>
</g>
<!-- Node0x7fdf4b8e23a0&#45;&gt;Node0x7fdf4b8e2368 -->
<g id="edge2" class="edge"><title>Node0x7fdf4b8e23a0&#45;&gt;Node0x7fdf4b8e2368</title>
<path fill="none" stroke="black" d="M392.167,-584.313C397.12,-575.941 403.179,-565.697 408.677,-556.403"/>
<polygon fill="black" stroke="black" points="411.848,-557.918 413.927,-547.529 405.823,-554.354 411.848,-557.918"/>
</g>
<!-- Node0x7fdf4b8e1e10 -->
<g id="node4" class="node"><title>Node0x7fdf4b8e1e10</title>
<polygon fill="none" stroke="black" points="101.5,-438.5 101.5,-474.5 202.5,-474.5 202.5,-438.5 101.5,-438.5"/>
<text text-anchor="middle" x="152" y="-452.8" font-family="Times,serif" font-size="14.00">BinaryOperator</text>
</g>
<!-- Node0x7fdf4b8e2368&#45;&gt;Node0x7fdf4b8e1e10 -->
<g id="edge3" class="edge"><title>Node0x7fdf4b8e2368&#45;&gt;Node0x7fdf4b8e1e10</title>
<path fill="none" stroke="black" d="M392.772,-514.182C389.834,-513.034 386.879,-511.952 384,-511 326.966,-492.13 259.916,-477.442 212.605,-468.27"/>
<polygon fill="black" stroke="black" points="213.001,-464.782 202.521,-466.341 211.685,-471.658 213.001,-464.782"/>
</g>
<!-- Node0x7fdf4b8e1e98 -->
<g id="node5" class="node"><title>Node0x7fdf4b8e1e98</title>
<polygon fill="none" stroke="black" points="314.5,-438.5 314.5,-474.5 415.5,-474.5 415.5,-438.5 314.5,-438.5"/>
<text text-anchor="middle" x="365" y="-452.8" font-family="Times,serif" font-size="14.00">BinaryOperator</text>
</g>
<!-- Node0x7fdf4b8e2368&#45;&gt;Node0x7fdf4b8e1e98 -->
<g id="edge4" class="edge"><title>Node0x7fdf4b8e2368&#45;&gt;Node0x7fdf4b8e1e98</title>
<path fill="none" stroke="black" d="M409.718,-511.313C402.471,-502.592 393.536,-491.84 385.564,-482.246"/>
<polygon fill="black" stroke="black" points="388.234,-479.983 379.151,-474.529 382.85,-484.457 388.234,-479.983"/>
</g>
<!-- Node0x7fdf4b8e1ee8 -->
<g id="node6" class="node"><title>Node0x7fdf4b8e1ee8</title>
<polygon fill="none" stroke="black" points="434,-438.5 434,-474.5 532,-474.5 532,-438.5 434,-438.5"/>
<text text-anchor="middle" x="483" y="-452.8" font-family="Times,serif" font-size="14.00">UnaryOperator</text>
</g>
<!-- Node0x7fdf4b8e2368&#45;&gt;Node0x7fdf4b8e1ee8 -->
<g id="edge5" class="edge"><title>Node0x7fdf4b8e2368&#45;&gt;Node0x7fdf4b8e1ee8</title>
<path fill="none" stroke="black" d="M438.282,-511.313C445.529,-502.592 454.464,-491.84 462.436,-482.246"/>
<polygon fill="black" stroke="black" points="465.15,-484.457 468.849,-474.529 459.766,-479.983 465.15,-484.457"/>
</g>
<!-- Node0x7fdf4b8e2348 -->
<g id="node7" class="node"><title>Node0x7fdf4b8e2348</title>
<polygon fill="none" stroke="black" points="550,-438.5 550,-474.5 654,-474.5 654,-438.5 550,-438.5"/>
<text text-anchor="middle" x="602" y="-452.8" font-family="Times,serif" font-size="14.00">CompoundStmt</text>
</g>
<!-- Node0x7fdf4b8e2368&#45;&gt;Node0x7fdf4b8e2348 -->
<g id="edge6" class="edge"><title>Node0x7fdf4b8e2368&#45;&gt;Node0x7fdf4b8e2348</title>
<path fill="none" stroke="black" d="M455.005,-516.133C481.183,-505.691 519.217,-490.52 550.038,-478.226"/>
<polygon fill="black" stroke="black" points="551.359,-481.468 559.35,-474.512 548.765,-474.966 551.359,-481.468"/>
</g>
<!-- Node0x7fdf4b8e1dc8 -->
<g id="node8" class="node"><title>Node0x7fdf4b8e1dc8</title>
<polygon fill="none" stroke="black" points="0,-365.5 0,-401.5 88,-401.5 88,-365.5 0,-365.5"/>
<text text-anchor="middle" x="44" y="-379.8" font-family="Times,serif" font-size="14.00">DeclRefExpr</text>
</g>
<!-- Node0x7fdf4b8e1e10&#45;&gt;Node0x7fdf4b8e1dc8 -->
<g id="edge7" class="edge"><title>Node0x7fdf4b8e1e10&#45;&gt;Node0x7fdf4b8e1dc8</title>
<path fill="none" stroke="black" d="M126.131,-438.494C111.942,-429.166 94.1579,-417.474 78.7699,-407.358"/>
<polygon fill="black" stroke="black" points="80.3107,-404.182 70.0319,-401.614 76.4653,-410.032 80.3107,-404.182"/>
</g>
<!-- Node0x7fdf4b8e1df0 -->
<g id="node9" class="node"><title>Node0x7fdf4b8e1df0</title>
<polygon fill="none" stroke="black" points="106.5,-365.5 106.5,-401.5 197.5,-401.5 197.5,-365.5 106.5,-365.5"/>
<text text-anchor="middle" x="152" y="-379.8" font-family="Times,serif" font-size="14.00">IntegerLiteral</text>
</g>
<!-- Node0x7fdf4b8e1e10&#45;&gt;Node0x7fdf4b8e1df0 -->
<g id="edge8" class="edge"><title>Node0x7fdf4b8e1e10&#45;&gt;Node0x7fdf4b8e1df0</title>
<path fill="none" stroke="black" d="M152,-438.313C152,-430.289 152,-420.547 152,-411.569"/>
<polygon fill="black" stroke="black" points="155.5,-411.529 152,-401.529 148.5,-411.529 155.5,-411.529"/>
</g>
<!-- Node0x7fdf4b8e1e80 -->
<g id="node10" class="node"><title>Node0x7fdf4b8e1e80</title>
<polygon fill="none" stroke="black" points="216,-365.5 216,-401.5 326,-401.5 326,-365.5 216,-365.5"/>
<text text-anchor="middle" x="271" y="-379.8" font-family="Times,serif" font-size="14.00">ImplicitCastExpr</text>
</g>
<!-- Node0x7fdf4b8e1e98&#45;&gt;Node0x7fdf4b8e1e80 -->
<g id="edge9" class="edge"><title>Node0x7fdf4b8e1e98&#45;&gt;Node0x7fdf4b8e1e80</title>
<path fill="none" stroke="black" d="M342.245,-438.313C330.122,-429.156 315.034,-417.76 301.869,-407.816"/>
<polygon fill="black" stroke="black" points="303.634,-404.763 293.545,-401.529 299.415,-410.349 303.634,-404.763"/>
</g>
<!-- Node0x7fdf4b8e1e60 -->
<g id="node11" class="node"><title>Node0x7fdf4b8e1e60</title>
<polygon fill="none" stroke="black" points="344.5,-365.5 344.5,-401.5 435.5,-401.5 435.5,-365.5 344.5,-365.5"/>
<text text-anchor="middle" x="390" y="-379.8" font-family="Times,serif" font-size="14.00">IntegerLiteral</text>
</g>
<!-- Node0x7fdf4b8e1e98&#45;&gt;Node0x7fdf4b8e1e60 -->
<g id="edge10" class="edge"><title>Node0x7fdf4b8e1e98&#45;&gt;Node0x7fdf4b8e1e60</title>
<path fill="none" stroke="black" d="M371.052,-438.313C373.938,-430.115 377.457,-420.123 380.674,-410.985"/>
<polygon fill="black" stroke="black" points="383.984,-412.124 384.004,-401.529 377.381,-409.799 383.984,-412.124"/>
</g>
<!-- Node0x7fdf4b8e1ec0 -->
<g id="node13" class="node"><title>Node0x7fdf4b8e1ec0</title>
<polygon fill="none" stroke="black" points="454,-365.5 454,-401.5 542,-401.5 542,-365.5 454,-365.5"/>
<text text-anchor="middle" x="498" y="-379.8" font-family="Times,serif" font-size="14.00">DeclRefExpr</text>
</g>
<!-- Node0x7fdf4b8e1ee8&#45;&gt;Node0x7fdf4b8e1ec0 -->
<g id="edge12" class="edge"><title>Node0x7fdf4b8e1ee8&#45;&gt;Node0x7fdf4b8e1ec0</title>
<path fill="none" stroke="black" d="M486.631,-438.313C488.326,-430.289 490.384,-420.547 492.281,-411.569"/>
<polygon fill="black" stroke="black" points="495.76,-412.036 494.402,-401.529 488.911,-410.589 495.76,-412.036"/>
</g>
<!-- Node0x7fdf4b8e2310 -->
<g id="node14" class="node"><title>Node0x7fdf4b8e2310</title>
<polygon fill="none" stroke="black" points="575,-365.5 575,-401.5 629,-401.5 629,-365.5 575,-365.5"/>
<text text-anchor="middle" x="602" y="-379.8" font-family="Times,serif" font-size="14.00">IfStmt</text>
</g>
<!-- Node0x7fdf4b8e2348&#45;&gt;Node0x7fdf4b8e2310 -->
<g id="edge13" class="edge"><title>Node0x7fdf4b8e2348&#45;&gt;Node0x7fdf4b8e2310</title>
<path fill="none" stroke="black" d="M602,-438.313C602,-430.289 602,-420.547 602,-411.569"/>
<polygon fill="black" stroke="black" points="605.5,-411.529 602,-401.529 598.5,-411.529 605.5,-411.529"/>
</g>
<!-- Node0x7fdf4b8e1e38 -->
<g id="node12" class="node"><title>Node0x7fdf4b8e1e38</title>
<polygon fill="none" stroke="black" points="227,-292.5 227,-328.5 315,-328.5 315,-292.5 227,-292.5"/>
<text text-anchor="middle" x="271" y="-306.8" font-family="Times,serif" font-size="14.00">DeclRefExpr</text>
</g>
<!-- Node0x7fdf4b8e1e80&#45;&gt;Node0x7fdf4b8e1e38 -->
<g id="edge11" class="edge"><title>Node0x7fdf4b8e1e80&#45;&gt;Node0x7fdf4b8e1e38</title>
<path fill="none" stroke="black" d="M271,-365.313C271,-357.289 271,-347.547 271,-338.569"/>
<polygon fill="black" stroke="black" points="274.5,-338.529 271,-328.529 267.5,-338.529 274.5,-338.529"/>
</g>
<!-- Node0x7fdf4b8e1fb0 -->
<g id="node15" class="node"><title>Node0x7fdf4b8e1fb0</title>
<polygon fill="none" stroke="black" points="489.5,-292.5 489.5,-328.5 590.5,-328.5 590.5,-292.5 489.5,-292.5"/>
<text text-anchor="middle" x="540" y="-306.8" font-family="Times,serif" font-size="14.00">BinaryOperator</text>
</g>
<!-- Node0x7fdf4b8e2310&#45;&gt;Node0x7fdf4b8e1fb0 -->
<g id="edge14" class="edge"><title>Node0x7fdf4b8e2310&#45;&gt;Node0x7fdf4b8e1fb0</title>
<path fill="none" stroke="black" d="M586.992,-365.313C579.376,-356.592 569.987,-345.84 561.609,-336.246"/>
<polygon fill="black" stroke="black" points="564.084,-333.759 554.87,-328.529 558.811,-338.363 564.084,-333.759"/>
</g>
<!-- Node0x7fdf4b8e22f0 -->
<g id="node16" class="node"><title>Node0x7fdf4b8e22f0</title>
<polygon fill="none" stroke="black" points="611,-292.5 611,-328.5 715,-328.5 715,-292.5 611,-292.5"/>
<text text-anchor="middle" x="663" y="-306.8" font-family="Times,serif" font-size="14.00">CompoundStmt</text>
</g>
<!-- Node0x7fdf4b8e2310&#45;&gt;Node0x7fdf4b8e22f0 -->
<g id="edge15" class="edge"><title>Node0x7fdf4b8e2310&#45;&gt;Node0x7fdf4b8e22f0</title>
<path fill="none" stroke="black" d="M616.766,-365.313C624.259,-356.592 633.496,-345.84 641.739,-336.246"/>
<polygon fill="black" stroke="black" points="644.508,-338.395 648.37,-328.529 639.198,-333.833 644.508,-338.395"/>
</g>
<!-- Node0x7fdf4b8e1f68 -->
<g id="node17" class="node"><title>Node0x7fdf4b8e1f68</title>
<polygon fill="none" stroke="black" points="372.5,-219.5 372.5,-255.5 473.5,-255.5 473.5,-219.5 372.5,-219.5"/>
<text text-anchor="middle" x="423" y="-233.8" font-family="Times,serif" font-size="14.00">BinaryOperator</text>
</g>
<!-- Node0x7fdf4b8e1fb0&#45;&gt;Node0x7fdf4b8e1f68 -->
<g id="edge16" class="edge"><title>Node0x7fdf4b8e1fb0&#45;&gt;Node0x7fdf4b8e1f68</title>
<path fill="none" stroke="black" d="M511.976,-292.494C496.46,-283.079 476.977,-271.255 460.201,-261.075"/>
<polygon fill="black" stroke="black" points="461.566,-257.809 451.201,-255.614 457.935,-263.794 461.566,-257.809"/>
</g>
<!-- Node0x7fdf4b8e1f90 -->
<g id="node18" class="node"><title>Node0x7fdf4b8e1f90</title>
<polygon fill="none" stroke="black" points="494.5,-219.5 494.5,-255.5 585.5,-255.5 585.5,-219.5 494.5,-219.5"/>
<text text-anchor="middle" x="540" y="-233.8" font-family="Times,serif" font-size="14.00">IntegerLiteral</text>
</g>
<!-- Node0x7fdf4b8e1fb0&#45;&gt;Node0x7fdf4b8e1f90 -->
<g id="edge17" class="edge"><title>Node0x7fdf4b8e1fb0&#45;&gt;Node0x7fdf4b8e1f90</title>
<path fill="none" stroke="black" d="M540,-292.313C540,-284.289 540,-274.547 540,-265.569"/>
<polygon fill="black" stroke="black" points="543.5,-265.529 540,-255.529 536.5,-265.529 543.5,-265.529"/>
</g>
<!-- Node0x7fdf4b8e2270 -->
<g id="node22" class="node"><title>Node0x7fdf4b8e2270</title>
<polygon fill="none" stroke="black" points="631.5,-219.5 631.5,-255.5 696.5,-255.5 696.5,-219.5 631.5,-219.5"/>
<text text-anchor="middle" x="664" y="-233.8" font-family="Times,serif" font-size="14.00">CallExpr</text>
</g>
<!-- Node0x7fdf4b8e22f0&#45;&gt;Node0x7fdf4b8e2270 -->
<g id="edge21" class="edge"><title>Node0x7fdf4b8e22f0&#45;&gt;Node0x7fdf4b8e2270</title>
<path fill="none" stroke="black" d="M663.242,-292.313C663.355,-284.289 663.492,-274.547 663.619,-265.569"/>
<polygon fill="black" stroke="black" points="667.119,-265.577 663.76,-255.529 660.12,-265.479 667.119,-265.577"/>
</g>
<!-- Node0x7fdf4b8e1f50 -->
<g id="node19" class="node"><title>Node0x7fdf4b8e1f50</title>
<polygon fill="none" stroke="black" points="249,-146.5 249,-182.5 359,-182.5 359,-146.5 249,-146.5"/>
<text text-anchor="middle" x="304" y="-160.8" font-family="Times,serif" font-size="14.00">ImplicitCastExpr</text>
</g>
<!-- Node0x7fdf4b8e1f68&#45;&gt;Node0x7fdf4b8e1f50 -->
<g id="edge18" class="edge"><title>Node0x7fdf4b8e1f68&#45;&gt;Node0x7fdf4b8e1f50</title>
<path fill="none" stroke="black" d="M394.497,-219.494C378.57,-209.991 358.533,-198.036 341.363,-187.792"/>
<polygon fill="black" stroke="black" points="343.064,-184.732 332.683,-182.614 339.478,-190.743 343.064,-184.732"/>
</g>
<!-- Node0x7fdf4b8e1f30 -->
<g id="node20" class="node"><title>Node0x7fdf4b8e1f30</title>
<polygon fill="none" stroke="black" points="377.5,-146.5 377.5,-182.5 468.5,-182.5 468.5,-146.5 377.5,-146.5"/>
<text text-anchor="middle" x="423" y="-160.8" font-family="Times,serif" font-size="14.00">IntegerLiteral</text>
</g>
<!-- Node0x7fdf4b8e1f68&#45;&gt;Node0x7fdf4b8e1f30 -->
<g id="edge19" class="edge"><title>Node0x7fdf4b8e1f68&#45;&gt;Node0x7fdf4b8e1f30</title>
<path fill="none" stroke="black" d="M423,-219.313C423,-211.289 423,-201.547 423,-192.569"/>
<polygon fill="black" stroke="black" points="426.5,-192.529 423,-182.529 419.5,-192.529 426.5,-192.529"/>
</g>
<!-- Node0x7fdf4b8e1f08 -->
<g id="node21" class="node"><title>Node0x7fdf4b8e1f08</title>
<polygon fill="none" stroke="black" points="260,-73.5 260,-109.5 348,-109.5 348,-73.5 260,-73.5"/>
<text text-anchor="middle" x="304" y="-87.8" font-family="Times,serif" font-size="14.00">DeclRefExpr</text>
</g>
<!-- Node0x7fdf4b8e1f50&#45;&gt;Node0x7fdf4b8e1f08 -->
<g id="edge20" class="edge"><title>Node0x7fdf4b8e1f50&#45;&gt;Node0x7fdf4b8e1f08</title>
<path fill="none" stroke="black" d="M304,-146.313C304,-138.289 304,-128.547 304,-119.569"/>
<polygon fill="black" stroke="black" points="307.5,-119.529 304,-109.529 300.5,-119.529 307.5,-119.529"/>
</g>
<!-- Node0x7fdf4b8e2258 -->
<g id="node23" class="node"><title>Node0x7fdf4b8e2258</title>
<polygon fill="none" stroke="black" points="487,-146.5 487,-182.5 597,-182.5 597,-146.5 487,-146.5"/>
<text text-anchor="middle" x="542" y="-160.8" font-family="Times,serif" font-size="14.00">ImplicitCastExpr</text>
</g>
<!-- Node0x7fdf4b8e2270&#45;&gt;Node0x7fdf4b8e2258 -->
<g id="edge22" class="edge"><title>Node0x7fdf4b8e2270&#45;&gt;Node0x7fdf4b8e2258</title>
<path fill="none" stroke="black" d="M634.778,-219.494C618.45,-209.991 597.907,-198.036 580.305,-187.792"/>
<polygon fill="black" stroke="black" points="581.81,-184.618 571.406,-182.614 578.289,-190.669 581.81,-184.618"/>
</g>
<!-- Node0x7fdf4b8e22c0 -->
<g id="node24" class="node"><title>Node0x7fdf4b8e22c0</title>
<polygon fill="none" stroke="black" points="615,-146.5 615,-182.5 725,-182.5 725,-146.5 615,-146.5"/>
<text text-anchor="middle" x="670" y="-160.8" font-family="Times,serif" font-size="14.00">ImplicitCastExpr</text>
</g>
<!-- Node0x7fdf4b8e2270&#45;&gt;Node0x7fdf4b8e22c0 -->
<g id="edge23" class="edge"><title>Node0x7fdf4b8e2270&#45;&gt;Node0x7fdf4b8e22c0</title>
<path fill="none" stroke="black" d="M665.452,-219.313C666.13,-211.289 666.954,-201.547 667.712,-192.569"/>
<polygon fill="black" stroke="black" points="671.206,-192.788 668.561,-182.529 664.231,-192.199 671.206,-192.788"/>
</g>
<!-- Node0x7fdf4b8e22d8 -->
<g id="node25" class="node"><title>Node0x7fdf4b8e22d8</title>
<polygon fill="none" stroke="black" points="743,-146.5 743,-182.5 853,-182.5 853,-146.5 743,-146.5"/>
<text text-anchor="middle" x="798" y="-160.8" font-family="Times,serif" font-size="14.00">ImplicitCastExpr</text>
</g>
<!-- Node0x7fdf4b8e2270&#45;&gt;Node0x7fdf4b8e22d8 -->
<g id="edge24" class="edge"><title>Node0x7fdf4b8e2270&#45;&gt;Node0x7fdf4b8e22d8</title>
<path fill="none" stroke="black" d="M696.096,-219.494C714.277,-209.861 737.215,-197.707 756.723,-187.37"/>
<polygon fill="black" stroke="black" points="758.504,-190.388 765.701,-182.614 755.226,-184.203 758.504,-190.388"/>
</g>
<!-- Node0x7fdf4b8e2170 -->
<g id="node26" class="node"><title>Node0x7fdf4b8e2170</title>
<polygon fill="none" stroke="black" points="498,-73.5 498,-109.5 586,-109.5 586,-73.5 498,-73.5"/>
<text text-anchor="middle" x="542" y="-87.8" font-family="Times,serif" font-size="14.00">DeclRefExpr</text>
</g>
<!-- Node0x7fdf4b8e2258&#45;&gt;Node0x7fdf4b8e2170 -->
<g id="edge25" class="edge"><title>Node0x7fdf4b8e2258&#45;&gt;Node0x7fdf4b8e2170</title>
<path fill="none" stroke="black" d="M542,-146.313C542,-138.289 542,-128.547 542,-119.569"/>
<polygon fill="black" stroke="black" points="545.5,-119.529 542,-109.529 538.5,-119.529 545.5,-119.529"/>
</g>
<!-- Node0x7fdf4b8e22a8 -->
<g id="node27" class="node"><title>Node0x7fdf4b8e22a8</title>
<polygon fill="none" stroke="black" points="615,-73.5 615,-109.5 725,-109.5 725,-73.5 615,-73.5"/>
<text text-anchor="middle" x="670" y="-87.8" font-family="Times,serif" font-size="14.00">ImplicitCastExpr</text>
</g>
<!-- Node0x7fdf4b8e22c0&#45;&gt;Node0x7fdf4b8e22a8 -->
<g id="edge26" class="edge"><title>Node0x7fdf4b8e22c0&#45;&gt;Node0x7fdf4b8e22a8</title>
<path fill="none" stroke="black" d="M670,-146.313C670,-138.289 670,-128.547 670,-119.569"/>
<polygon fill="black" stroke="black" points="673.5,-119.529 670,-109.529 666.5,-119.529 673.5,-119.529"/>
</g>
<!-- Node0x7fdf4b8e2208 -->
<g id="node29" class="node"><title>Node0x7fdf4b8e2208</title>
<polygon fill="none" stroke="black" points="754,-73.5 754,-109.5 842,-109.5 842,-73.5 754,-73.5"/>
<text text-anchor="middle" x="798" y="-87.8" font-family="Times,serif" font-size="14.00">DeclRefExpr</text>
</g>
<!-- Node0x7fdf4b8e22d8&#45;&gt;Node0x7fdf4b8e2208 -->
<g id="edge28" class="edge"><title>Node0x7fdf4b8e22d8&#45;&gt;Node0x7fdf4b8e2208</title>
<path fill="none" stroke="black" d="M798,-146.313C798,-138.289 798,-128.547 798,-119.569"/>
<polygon fill="black" stroke="black" points="801.5,-119.529 798,-109.529 794.5,-119.529 801.5,-119.529"/>
</g>
<!-- Node0x7fdf4b8e21d8 -->
<g id="node28" class="node"><title>Node0x7fdf4b8e21d8</title>
<polygon fill="none" stroke="black" points="627,-0.5 627,-36.5 713,-36.5 713,-0.5 627,-0.5"/>
<text text-anchor="middle" x="670" y="-14.8" font-family="Times,serif" font-size="14.00">StringLiteral</text>
</g>
<!-- Node0x7fdf4b8e22a8&#45;&gt;Node0x7fdf4b8e21d8 -->
<g id="edge27" class="edge"><title>Node0x7fdf4b8e22a8&#45;&gt;Node0x7fdf4b8e21d8</title>
<path fill="none" stroke="black" d="M670,-73.3129C670,-65.2895 670,-55.5475 670,-46.5691"/>
<polygon fill="black" stroke="black" points="673.5,-46.5288 670,-36.5288 666.5,-46.5289 673.5,-46.5288"/>
</g>
</g>
</svg>
