<?xml version="1.0" encoding="UTF-8" standalone="no"?>
<!DOCTYPE svg PUBLIC "-//W3C//DTD SVG 1.1//EN"
 "http://www.w3.org/Graphics/SVG/1.1/DTD/svg11.dtd">
<!-- Generated by graphviz version 2.38.0 (20140413.2041)
 -->
<!-- Title: unnamed Pages: 1 -->
<svg width="554pt" height="705pt"
 viewBox="0.00 0.00 554.00 705.00" xmlns="http://www.w3.org/2000/svg" xmlns:xlink="http://www.w3.org/1999/xlink">
<g id="graph0" class="graph" transform="scale(1 1) rotate(0) translate(4 701)">
<title>unnamed</title>
<polygon fill="white" stroke="none" points="-4,4 -4,-701 550,-701 550,4 -4,4"/>
<!-- Node0x7fb4b4b396d0 -->
<g id="node1" class="node"><title>Node0x7fb4b4b396d0</title>
<polygon fill="none" stroke="black" points="102.5,-114 102.5,-150 187.5,-150 187.5,-114 102.5,-114"/>
<text text-anchor="start" x="110.5" y="-128.3" font-family="Times,serif" font-size="14.00">[B0 (EXIT)]</text>
</g>
<!-- Node0x7fb4b4b397a8 -->
<g id="node2" class="node"><title>Node0x7fb4b4b397a8</title>
<polygon fill="none" stroke="black" points="96,-248 96,-301 206,-301 206,-248 96,-248"/>
<text text-anchor="start" x="104" y="-285.8" font-family="Times,serif" font-size="14.00">[B1]</text>
<text text-anchor="start" x="104" y="-270.8" font-family="Times,serif" font-size="14.00"> 1: 0</text>
<text text-anchor="start" x="104" y="-255.8" font-family="Times,serif" font-size="14.00"> 2: return [B1.1];</text>
</g>
<!-- Node0x7fb4b4b397a8&#45;&gt;Node0x7fb4b4b396d0 -->
<g id="edge1" class="edge"><title>Node0x7fb4b4b397a8&#45;&gt;Node0x7fb4b4b396d0</title>
<path fill="none" stroke="black" d="M149.9,-247.73C148.84,-222.914 147.243,-185.518 146.163,-160.224"/>
<polygon fill="black" stroke="black" points="149.658,-160.039 145.734,-150.197 142.664,-160.338 149.658,-160.039"/>
</g>
<!-- Node0x7fb4b4b39880 -->
<g id="node3" class="node"><title>Node0x7fb4b4b39880</title>
<polygon fill="none" stroke="black" points="173,-0.5 173,-53.5 259,-53.5 259,-0.5 173,-0.5"/>
<text text-anchor="start" x="181" y="-38.3" font-family="Times,serif" font-size="14.00">[B2]</text>
<text text-anchor="start" x="181" y="-23.3" font-family="Times,serif" font-size="14.00"> 1: i</text>
<text text-anchor="start" x="181" y="-8.3" font-family="Times,serif" font-size="14.00"> 2: [B2.1]++</text>
</g>
<!-- Node0x7fb4b4b39bc8 -->
<g id="node4" class="node"><title>Node0x7fb4b4b39bc8</title>
<polygon fill="none" stroke="black" points="0,-375.5 0,-473.5 302,-473.5 302,-375.5 0,-375.5"/>
<text text-anchor="start" x="8" y="-458.3" font-family="Times,serif" font-size="14.00">[B5]</text>
<text text-anchor="start" x="8" y="-443.3" font-family="Times,serif" font-size="14.00"> 1: i</text>
<text text-anchor="start" x="8" y="-428.3" font-family="Times,serif" font-size="14.00"> 2: [B5.1] (ImplicitCastExpr, LValueToRValue, int)</text>
<text text-anchor="start" x="8" y="-413.3" font-family="Times,serif" font-size="14.00"> 3: 10</text>
<text text-anchor="start" x="8" y="-398.3" font-family="Times,serif" font-size="14.00"> 4: [B5.2] &lt; [B5.3]</text>
<text text-anchor="start" x="8" y="-383.3" font-family="Times,serif" font-size="14.00"> T: for (...; [B5.4]; ...)</text>
</g>
<!-- Node0x7fb4b4b39880&#45;&gt;Node0x7fb4b4b39bc8 -->
<g id="edge2" class="edge"><title>Node0x7fb4b4b39880&#45;&gt;Node0x7fb4b4b39bc8</title>
<path fill="none" stroke="black" d="M172.863,-37.8401C145.088,-46.6001 110.935,-62.4409 93,-90 32.6189,-182.781 51.7464,-234.065 87,-339 90.2087,-348.551 94.9723,-357.882 100.479,-366.649"/>
<polygon fill="black" stroke="black" points="97.7373,-368.846 106.203,-375.217 103.558,-364.958 97.7373,-368.846"/>
</g>
<!-- Node0x7fb4b4b39bc8&#45;&gt;Node0x7fb4b4b397a8 -->
<g id="edge7" class="edge"><title>Node0x7fb4b4b39bc8&#45;&gt;Node0x7fb4b4b397a8</title>
<path fill="none" stroke="black" d="M151,-375.449C151,-354.654 151,-330.728 151,-311.5"/>
<polygon fill="black" stroke="black" points="154.5,-311.351 151,-301.351 147.5,-311.351 154.5,-311.351"/>
</g>
<!-- Node0x7fb4b4b39a30 -->
<g id="node6" class="node"><title>Node0x7fb4b4b39a30</title>
<polygon fill="none" stroke="black" points="224,-210.5 224,-338.5 526,-338.5 526,-210.5 224,-210.5"/>
<text text-anchor="start" x="232" y="-323.3" font-family="Times,serif" font-size="14.00">[B4]</text>
<text text-anchor="start" x="232" y="-308.3" font-family="Times,serif" font-size="14.00"> 1: i</text>
<text text-anchor="start" x="232" y="-293.3" font-family="Times,serif" font-size="14.00"> 2: [B4.1] (ImplicitCastExpr, LValueToRValue, int)</text>
<text text-anchor="start" x="232" y="-278.3" font-family="Times,serif" font-size="14.00"> 3: 2</text>
<text text-anchor="start" x="232" y="-263.3" font-family="Times,serif" font-size="14.00"> 4: [B4.2] % [B4.3]</text>
<text text-anchor="start" x="232" y="-248.3" font-family="Times,serif" font-size="14.00"> 5: 0</text>
<text text-anchor="start" x="232" y="-233.3" font-family="Times,serif" font-size="14.00"> 6: [B4.4] == [B4.5]</text>
<text text-anchor="start" x="232" y="-218.3" font-family="Times,serif" font-size="14.00"> T: if [B4.6]</text>
</g>
<!-- Node0x7fb4b4b39bc8&#45;&gt;Node0x7fb4b4b39a30 -->
<g id="edge6" class="edge"><title>Node0x7fb4b4b39bc8&#45;&gt;Node0x7fb4b4b39a30</title>
<path fill="none" stroke="black" d="M223.726,-375.449C238.709,-365.55 254.765,-354.941 270.616,-344.468"/>
<polygon fill="black" stroke="black" points="272.979,-347.101 279.393,-338.669 269.121,-341.261 272.979,-347.101"/>
</g>
<!-- Node0x7fb4b4b39958 -->
<g id="node5" class="node"><title>Node0x7fb4b4b39958</title>
<polygon fill="none" stroke="black" points="244,-90.5 244,-173.5 546,-173.5 546,-90.5 244,-90.5"/>
<text text-anchor="start" x="252" y="-158.3" font-family="Times,serif" font-size="14.00">[B3]</text>
<text text-anchor="start" x="252" y="-143.3" font-family="Times,serif" font-size="14.00"> 1: s</text>
<text text-anchor="start" x="252" y="-128.3" font-family="Times,serif" font-size="14.00"> 2: i</text>
<text text-anchor="start" x="252" y="-113.3" font-family="Times,serif" font-size="14.00"> 3: [B3.2] (ImplicitCastExpr, LValueToRValue, int)</text>
<text text-anchor="start" x="252" y="-98.3" font-family="Times,serif" font-size="14.00"> 4: [B3.1] += [B3.3]</text>
</g>
<!-- Node0x7fb4b4b39958&#45;&gt;Node0x7fb4b4b39880 -->
<g id="edge3" class="edge"><title>Node0x7fb4b4b39958&#45;&gt;Node0x7fb4b4b39880</title>
<path fill="none" stroke="black" d="M324.511,-90.4395C305.683,-79.6053 285.678,-68.0938 268.04,-57.9451"/>
<polygon fill="black" stroke="black" points="269.465,-54.7268 259.052,-52.7729 265.974,-60.7941 269.465,-54.7268"/>
</g>
<!-- Node0x7fb4b4b39a30&#45;&gt;Node0x7fb4b4b39880 -->
<g id="edge5" class="edge"><title>Node0x7fb4b4b39a30&#45;&gt;Node0x7fb4b4b39880</title>
<path fill="none" stroke="black" d="M265.537,-210.274C253.709,-199.517 243.064,-187.418 235,-174 214.889,-140.538 212.012,-95.0349 212.963,-63.7695"/>
<polygon fill="black" stroke="black" points="216.461,-63.8972 213.414,-53.7502 209.468,-63.583 216.461,-63.8972"/>
</g>
<!-- Node0x7fb4b4b39a30&#45;&gt;Node0x7fb4b4b39958 -->
<g id="edge4" class="edge"><title>Node0x7fb4b4b39a30&#45;&gt;Node0x7fb4b4b39958</title>
<path fill="none" stroke="black" d="M384.005,-210.237C385.258,-201.434 386.533,-192.483 387.748,-183.945"/>
<polygon fill="black" stroke="black" points="391.252,-184.166 389.196,-173.773 384.322,-183.179 391.252,-184.166"/>
</g>
<!-- Node0x7fb4b4b39cc0 -->
<g id="node7" class="node"><title>Node0x7fb4b4b39cc0</title>
<polygon fill="none" stroke="black" points="90.5,-510.5 90.5,-623.5 211.5,-623.5 211.5,-510.5 90.5,-510.5"/>
<text text-anchor="start" x="98.5" y="-608.3" font-family="Times,serif" font-size="14.00">[B6]</text>
<text text-anchor="start" x="98.5" y="-593.3" font-family="Times,serif" font-size="14.00"> 1: int i;</text>
<text text-anchor="start" x="98.5" y="-578.3" font-family="Times,serif" font-size="14.00"> 2: 0</text>
<text text-anchor="start" x="98.5" y="-563.3" font-family="Times,serif" font-size="14.00"> 3: int s = 0;</text>
<text text-anchor="start" x="98.5" y="-548.3" font-family="Times,serif" font-size="14.00"> 4: 0</text>
<text text-anchor="start" x="98.5" y="-533.3" font-family="Times,serif" font-size="14.00"> 5: i</text>
<text text-anchor="start" x="98.5" y="-518.3" font-family="Times,serif" font-size="14.00"> 6: [B6.5] = [B6.4]</text>
</g>
<!-- Node0x7fb4b4b39cc0&#45;&gt;Node0x7fb4b4b39bc8 -->
<g id="edge8" class="edge"><title>Node0x7fb4b4b39cc0&#45;&gt;Node0x7fb4b4b39bc8</title>
<path fill="none" stroke="black" d="M151,-510.471C151,-501.76 151,-492.733 151,-483.959"/>
<polygon fill="black" stroke="black" points="154.5,-483.809 151,-473.809 147.5,-483.809 154.5,-483.809"/>
</g>
<!-- Node0x7fb4b4b39e68 -->
<g id="node8" class="node"><title>Node0x7fb4b4b39e68</title>
<polygon fill="none" stroke="black" points="101.5,-660.5 101.5,-696.5 200.5,-696.5 200.5,-660.5 101.5,-660.5"/>
<text text-anchor="start" x="109.5" y="-674.8" font-family="Times,serif" font-size="14.00">[B7 (ENTRY)]</text>
</g>
<!-- Node0x7fb4b4b39e68&#45;&gt;Node0x7fb4b4b39cc0 -->
<g id="edge9" class="edge"><title>Node0x7fb4b4b39e68&#45;&gt;Node0x7fb4b4b39cc0</title>
<path fill="none" stroke="black" d="M151,-660.391C151,-652.98 151,-643.786 151,-634.096"/>
<polygon fill="black" stroke="black" points="154.5,-633.873 151,-623.873 147.5,-633.873 154.5,-633.873"/>
</g>
</g>
</svg>
